<?xml version="1.0" encoding="UTF-8"?><!DOCTYPE svg PUBLIC "-//W3C//DTD SVG 1.0//EN" "http://www.w3.org/TR/2001/REC-SVG-20010904/DTD/svg10.dtd"><svg xmlns="http://www.w3.org/2000/svg" xmlns:xlink="http://www.w3.org/1999/xlink" height="110px" version="1.0" viewBox="0 0 110 110" width="110px" xml:space="preserve"><g id="Multicolor"><circle cx="55" cy="55" r="55" fill="#25B7D3"/><path d="M23 27a4 4 0 0 1 4-4h56a4 4 0 0 1 4 4v56a4 4 0 0 1-4 4H27a4 4 0 0 1-4-4V27z" fill="#84462D"/><path fill="#FFF" d="M27 27h56v56H27z"/><path fill="#3E3E3F" d="M27 69h14v14H27z"/><path fill="#3E3E3F" d="M41 55h14v14H41z"/><path fill="#3E3E3F" d="M55 41h14v14H55z"/><path fill="#3E3E3F" d="M55 69h14v14H55z"/><path fill="#3E3E3F" d="M69 27h14v14H69z"/><path fill="#5B5C5F" d="M41 27h14v14H41z"/><path fill="#3E3E3F" d="M55 41H41l14-14z"/><path fill="#5B5C5F" d="M27 41h14v14H27z"/><path fill="#3E3E3F" d="M41 55H27l14-14z"/><path fill="#3E3E3F" d="M69 55h14v14H69z"/><circle cx="48" cy="62" r="4" fill="#FFF"/><circle cx="76" cy="62" r="4" fill="#FFF"/><circle cx="62" cy="76" r="4" fill="#FFF"/><circle cx="34" cy="76" r="4" fill="#FFF"/></g><metadata><rdf:RDF xmlns:rdf="http://www.w3.org/1999/02/22-rdf-syntax-ns#" xmlns:rdfs="http://www.w3.org/2000/01/rdf-schema#" xmlns:dc="http://purl.org/dc/elements/1.1/"><rdf:Description about="https://iconscout.com/legal#licenses" dc:title="chessboard" dc:description="chessboard" dc:publisher="Iconscout" dc:date="2017-09-19" dc:format="image/svg+xml" dc:language="en"><dc:creator><rdf:Bag><rdf:li>Vincent Le Moign</rdf:li></rdf:Bag></dc:creator></rdf:Description></rdf:RDF></metadata></svg>